<svg width="1000" height="486" viewBox="0 0 1000 486" fill="none" xmlns="http://www.w3.org/2000/svg">
<path d="M989.961 458.245C976.359 458.245 968.101 453.063 968.101 433.956V387.808H956.119V374.692H968.101V348.137H983.969V374.692H999.838V387.808H983.969V434.442C983.969 443.186 986.398 445.129 993.199 445.129C995.952 445.129 997.247 444.967 1000 444.481V457.273C995.952 458.083 993.361 458.245 989.961 458.245Z" fill="white"/>
<path d="M930.523 404.324C930.523 393.313 925.666 385.864 913.683 385.864C900.082 385.864 891.338 394.122 891.338 406.59V457.272H875.469V374.692H891.338V385.055H891.662C896.034 378.74 904.615 372.263 918.865 372.263C934.086 372.263 946.392 381.007 946.392 399.952V457.272H930.523V404.324Z" fill="white"/>
<path d="M822.881 459.702C796.649 459.702 782.076 441.081 782.076 415.821C782.076 389.913 797.621 372.102 822.881 372.102C847.979 372.102 862.066 388.618 862.066 414.202C862.066 416.469 862.066 418.897 861.904 420.193H798.43C798.754 433.956 806.85 446.748 823.205 446.748C837.778 446.748 843.445 437.357 844.902 431.851H861.095C856.723 447.72 844.579 459.702 822.881 459.702ZM798.43 407.725H845.55C845.55 394.771 836.482 385.055 822.395 385.055C809.117 385.055 799.402 394.123 798.43 407.725Z" fill="white"/>
<path d="M693.13 459.537C672.08 459.537 656.049 443.183 656.049 415.98C656.049 388.777 672.08 372.261 693.13 372.261C706.084 372.261 714.018 378.252 718.552 384.729H718.876V341.495H734.744V457.27H718.876V447.555H718.552C714.018 453.384 706.084 459.537 693.13 459.537ZM672.566 415.98C672.566 432.172 680.176 446.421 695.721 446.421C709.97 446.421 718.714 434.601 718.714 415.98C718.714 397.197 709.97 385.538 695.721 385.538C680.176 385.538 672.566 399.788 672.566 415.98Z" fill="white"/>
<path d="M600.782 459.539C579.732 459.539 563.701 443.185 563.701 415.982C563.701 388.779 579.732 372.263 600.782 372.263C613.736 372.263 621.67 378.254 626.204 384.731H626.527V374.692H642.396V457.272H626.527V447.557H626.204C621.67 453.386 613.736 459.539 600.782 459.539ZM580.217 415.982C580.217 432.174 587.828 446.424 603.372 446.424C617.622 446.424 626.366 434.603 626.366 415.982C626.366 397.199 617.622 385.54 603.372 385.54C587.828 385.54 580.217 399.79 580.217 415.982Z" fill="white"/>
<path d="M530.647 414.525V457.273H514.779V374.692H530.647V390.399H530.971C535.343 380.036 541.982 372.749 553.155 372.749C556.069 372.749 558.336 372.911 560.765 373.235V388.456C558.822 388.132 557.365 387.97 555.422 387.97C541.01 387.97 530.647 398.819 530.647 414.525Z" fill="white"/>
<path d="M444.934 459.54C411.578 459.54 392.794 434.279 392.794 399.304C392.794 364.491 414.006 339.23 447.039 339.23C476.995 339.23 492.863 355.261 496.587 377.282H477.966C474.89 362.709 464.041 354.613 446.877 354.613C421.293 354.613 411.416 377.606 411.416 399.304C411.416 421.164 418.864 444.157 445.905 444.157C465.012 444.157 480.233 430.879 480.395 411.61H446.229V396.713H498.53V457.273H481.852V441.242H481.528C473.432 453.063 462.583 459.54 444.934 459.54Z" fill="white"/>
<path d="M363.95 404.324C363.95 393.313 359.093 385.864 347.11 385.864C333.509 385.864 324.765 394.122 324.765 406.59V457.272H308.896V374.692H324.765V385.055H325.089C329.461 378.74 338.043 372.263 352.292 372.263C367.513 372.263 379.819 381.007 379.819 399.952V457.272H363.95V404.324Z" fill="white"/>
<path d="M256.308 459.702C230.077 459.702 215.503 441.081 215.503 415.821C215.503 389.913 231.048 372.102 256.308 372.102C281.406 372.102 295.494 388.618 295.494 414.202C295.494 416.469 295.494 418.897 295.332 420.193H231.858C232.182 433.956 240.278 446.748 256.632 446.748C271.205 446.748 276.872 437.357 278.33 431.851H294.522C290.15 447.72 278.006 459.702 256.308 459.702ZM231.858 407.725H278.977C278.977 394.771 269.91 385.055 255.822 385.055C242.545 385.055 232.829 394.123 231.858 407.725Z" fill="white"/>
<path d="M168.979 459.539C156.025 459.539 148.091 453.71 143.557 447.071H143.233V485.933H127.365V374.692H143.233V384.407H143.557C148.091 378.578 156.025 372.263 168.979 372.263C190.029 372.263 206.059 388.779 206.059 415.982C206.059 443.185 190.029 459.539 168.979 459.539ZM143.395 415.982C143.395 434.603 152.139 446.424 166.388 446.424C181.933 446.424 189.381 432.174 189.381 415.982C189.381 399.79 181.933 385.54 166.388 385.54C152.139 385.54 143.395 397.199 143.395 415.982Z" fill="white"/>
<path d="M56.8351 459.54C22.1835 459.54 0 434.118 0 399.304C0 364.491 22.1835 339.23 56.8351 339.23C91.4867 339.23 113.67 364.491 113.67 399.304C113.67 434.118 91.4867 459.54 56.8351 459.54ZM18.6212 399.304C18.6212 423.107 29.4701 444.157 56.8351 444.157C84.2002 444.157 95.049 423.107 95.049 399.304C95.049 375.501 84.2002 354.613 56.8351 354.613C29.4701 354.613 18.6212 375.501 18.6212 399.304Z" fill="white"/>
<path d="M752.603 457.274V374.693H768.471V457.274H752.603Z" fill="white"/>
<path d="M760.622 361.847C766.242 361.847 770.797 357.291 770.797 351.672C770.797 346.052 766.242 341.496 760.622 341.496C755.002 341.496 750.446 346.052 750.446 351.672C750.446 357.291 755.002 361.847 760.622 361.847Z" fill="white"/>
<path fill-rule="evenodd" clip-rule="evenodd" d="M479.036 8.695C490.356 -2.89832 509.001 -2.89834 520.321 8.69499L548.915 37.9801C554.177 43.3695 557.123 50.6031 557.123 58.1354V69.3856H568.372C575.904 69.3856 583.138 72.3314 588.527 77.5936L617.812 106.188C629.406 117.508 629.406 136.153 617.812 147.473L588.527 176.067C583.138 181.329 575.904 184.275 568.372 184.275H557.123V195.524C557.123 203.056 554.177 210.29 548.915 215.679L520.321 244.964C509.001 256.557 490.356 256.557 479.036 244.964L450.442 215.679C445.18 210.29 442.234 203.056 442.234 195.524V184.275H430.984C423.451 184.275 416.218 181.329 410.828 176.067L381.543 147.473C369.95 136.153 369.95 117.508 381.543 106.188L410.828 77.5936C416.218 72.3314 423.451 69.3856 430.984 69.3856H442.234V58.1355C442.234 50.6031 445.18 43.3695 450.442 37.9801L479.036 8.695ZM457.714 195.524V184.275H471.184C478.716 184.275 485.95 181.329 491.339 176.067L499.678 167.925L508.017 176.067C513.406 181.329 520.64 184.275 528.172 184.275H541.642V195.524C541.642 199.014 540.277 202.366 537.839 204.864L509.244 234.149C503.999 239.522 495.358 239.522 490.112 234.149L461.518 204.864C459.08 202.366 457.714 199.014 457.714 195.524ZM480.524 164.99L488.598 157.107L480.156 148.864C479.776 148.513 479.402 148.151 479.036 147.776L478.913 147.65L478.731 147.473C478.342 147.092 477.965 146.703 477.602 146.307L469.402 137.909L461.518 145.983C459.08 148.481 457.714 151.833 457.714 155.324V168.794H471.184C474.674 168.794 478.026 167.429 480.524 164.99ZM510.757 96.5539L519.155 104.753C519.551 105.117 519.94 105.493 520.321 105.883L520.499 106.066L520.624 106.188C520.999 106.554 521.361 106.927 521.711 107.308L529.955 115.75L537.839 107.676C540.277 105.178 541.642 101.826 541.642 98.3354V84.8663H528.172C524.681 84.8663 521.329 86.2314 518.832 88.67L510.757 96.5539ZM520.624 147.473L520.471 147.622L520.321 147.776C519.947 148.158 519.566 148.528 519.178 148.885L510.757 157.107L518.832 164.99C521.329 167.429 524.681 168.794 528.172 168.794H541.642V155.324C541.642 151.833 540.277 148.481 537.839 145.983L529.955 137.909L521.733 146.33C521.376 146.718 521.006 147.099 520.624 147.473ZM491.339 77.5936L499.678 85.7358L508.017 77.5936C513.406 72.3314 520.64 69.3856 528.172 69.3856H541.642V58.1354C541.642 54.6449 540.277 51.2927 537.839 48.7952L509.244 19.5101C503.999 14.1375 495.358 14.1375 490.112 19.5101L461.518 48.7952C459.08 51.2927 457.714 54.6449 457.714 58.1355V69.3856H471.184C478.716 69.3856 485.95 72.3314 491.339 77.5936ZM471.184 84.8663H457.714V98.3354C457.714 101.826 459.08 105.178 461.518 107.676L469.402 115.75L477.622 107.332C477.979 106.943 478.349 106.561 478.731 106.188L478.886 106.037L479.036 105.883C479.409 105.501 479.791 105.131 480.179 104.774L488.598 96.5539L480.524 88.67C478.026 86.2314 474.674 84.8663 471.184 84.8663ZM442.234 98.3354V84.8663H430.984C427.493 84.8663 424.141 86.2314 421.643 88.67L392.358 117.264C386.986 122.51 386.986 131.15 392.358 136.396L421.643 164.99C424.141 167.429 427.493 168.794 430.984 168.794H442.234V155.324C442.234 147.791 445.18 140.558 450.442 135.168L458.584 126.83L450.442 118.491C445.18 113.101 442.234 105.868 442.234 98.3354ZM557.123 168.794H568.372C571.862 168.794 575.215 167.429 577.712 164.99L606.997 136.396C612.37 131.15 612.37 122.51 606.997 117.264L577.712 88.67C575.215 86.2314 571.862 84.8663 568.372 84.8663H557.123V98.3354C557.123 105.868 554.177 113.101 548.915 118.491L540.773 126.83L548.915 135.168C554.177 140.558 557.123 147.791 557.123 155.324V168.794ZM484.801 126.83C484.801 135.046 491.462 141.707 499.679 141.707C507.895 141.707 514.556 135.046 514.556 126.83C514.556 118.613 507.895 111.952 499.679 111.952C491.462 111.952 484.801 118.613 484.801 126.83Z" fill="white"/>
</svg>
