<svg width="733" height="120" viewBox="0 0 733 120" fill="none" xmlns="http://www.w3.org/2000/svg">
<path d="M654.25 88.3537C647.301 88.3537 643.082 85.7064 643.082 75.9444V52.3666H636.96V45.6656H643.082V32.098H651.189V45.6656H659.297V52.3666H651.189V76.1925C651.189 80.6599 652.43 81.6527 655.905 81.6527C657.311 81.6527 657.973 81.5699 659.38 81.3217V87.8573C657.311 88.271 655.988 88.3537 654.25 88.3537Z" fill="#40D1DB"/>
<path d="M623.883 60.8047C623.883 55.1791 621.401 51.3736 615.279 51.3736C608.33 51.3736 603.862 55.5927 603.862 61.9629V87.857H595.755V45.6653H603.862V50.9599H604.028C606.261 47.7335 610.646 44.4243 617.926 44.4243C625.703 44.4243 631.99 48.8917 631.99 58.571V87.857H623.883V60.8047Z" fill="#40D1DB"/>
<path d="M568.888 89.0977C555.485 89.0977 548.04 79.5839 548.04 66.6782C548.04 53.4415 555.982 44.3414 568.888 44.3414C581.711 44.3414 588.908 52.7797 588.908 65.8509C588.908 67.0091 588.908 68.25 588.825 68.9118H556.396C556.561 75.9438 560.697 82.4794 569.053 82.4794C576.499 82.4794 579.394 77.6811 580.139 74.8683H588.412C586.178 82.9757 579.973 89.0977 568.888 89.0977ZM556.396 62.5417H580.47C580.47 55.9234 575.837 50.9597 568.639 50.9597C561.856 50.9597 556.892 55.5925 556.396 62.5417Z" fill="#40D1DB"/>
<path d="M502.596 89.0142C491.841 89.0142 483.651 80.6586 483.651 66.7601C483.651 52.8616 491.841 44.4233 502.596 44.4233C509.214 44.4233 513.268 47.4843 515.584 50.7934H515.75V28.7048H523.857V87.856H515.75V82.8922H515.584C513.268 85.8705 509.214 89.0142 502.596 89.0142ZM492.089 66.7601C492.089 75.033 495.977 82.3131 503.919 82.3131C511.199 82.3131 515.667 76.2739 515.667 66.7601C515.667 57.1635 511.199 51.2071 503.919 51.2071C495.977 51.2071 492.089 58.4872 492.089 66.7601Z" fill="#40D1DB"/>
<path d="M455.413 89.0152C444.659 89.0152 436.468 80.6596 436.468 66.7611C436.468 52.8627 444.659 44.4243 455.413 44.4243C462.032 44.4243 466.085 47.4853 468.402 50.7945H468.567V45.6653H476.675V87.857H468.567V82.8933H468.402C466.085 85.8715 462.032 89.0152 455.413 89.0152ZM444.907 66.7611C444.907 75.034 448.795 82.3142 456.737 82.3142C464.017 82.3142 468.484 76.275 468.484 66.7611C468.484 57.1646 464.017 51.2081 456.737 51.2081C448.795 51.2081 444.907 58.4883 444.907 66.7611Z" fill="#40D1DB"/>
<path d="M419.581 66.0161V87.8565H411.474V45.6647H419.581V53.6894H419.746C421.98 48.3948 425.372 44.672 431.08 44.672C432.569 44.672 433.728 44.7547 434.969 44.9202V52.6967C433.976 52.5312 433.231 52.4485 432.238 52.4485C424.876 52.4485 419.581 57.9913 419.581 66.0161Z" fill="#40D1DB"/>
<path d="M375.789 89.0152C358.747 89.0152 349.151 76.1094 349.151 58.24C349.151 40.4533 359.988 27.5476 376.865 27.5476C392.17 27.5476 400.277 35.7377 402.18 46.9889H392.666C391.094 39.5433 385.551 35.4068 376.782 35.4068C363.711 35.4068 358.664 47.1543 358.664 58.24C358.664 69.4084 362.47 81.1559 376.286 81.1559C386.048 81.1559 393.824 74.3721 393.907 64.5274H376.451V56.9163H403.172V87.8569H394.651V79.6668H394.486C390.35 85.706 384.807 89.0152 375.789 89.0152Z" fill="#40D1DB"/>
<path d="M334.413 60.8047C334.413 55.1791 331.931 51.3736 325.809 51.3736C318.86 51.3736 314.393 55.5927 314.393 61.9629V87.857H306.285V45.6653H314.393V50.9599H314.558C316.792 47.7335 321.176 44.4243 328.456 44.4243C336.233 44.4243 342.52 48.8917 342.52 58.571V87.857H334.413V60.8047Z" fill="#40D1DB"/>
<path d="M279.417 89.0977C266.015 89.0977 258.569 79.5839 258.569 66.6782C258.569 53.4415 266.511 44.3414 279.417 44.3414C292.24 44.3414 299.438 52.7797 299.438 65.8509C299.438 67.0091 299.438 68.25 299.355 68.9118H266.925C267.091 75.9438 271.227 82.4794 279.583 82.4794C287.028 82.4794 289.924 77.6811 290.668 74.8683H298.941C296.707 82.9757 290.503 89.0977 279.417 89.0977ZM266.925 62.5417H290.999C290.999 55.9234 286.366 50.9597 279.169 50.9597C272.385 50.9597 267.421 55.5925 266.925 62.5417Z" fill="#40D1DB"/>
<path d="M234.799 89.0152C228.181 89.0152 224.127 86.037 221.811 82.6451H221.646V102.5H213.538V45.6653H221.646V50.629H221.811C224.127 47.6508 228.181 44.4243 234.799 44.4243C245.554 44.4243 253.744 52.8627 253.744 66.7611C253.744 80.6596 245.554 89.0152 234.799 89.0152ZM221.728 66.7611C221.728 76.275 226.196 82.3142 233.476 82.3142C241.418 82.3142 245.223 75.034 245.223 66.7611C245.223 58.4882 241.418 51.2081 233.476 51.2081C226.196 51.2081 221.728 57.1646 221.728 66.7611Z" fill="#40D1DB"/>
<path d="M177.504 89.0152C159.8 89.0152 148.466 76.0267 148.466 58.24C148.466 40.4533 159.8 27.5476 177.504 27.5476C195.208 27.5476 206.542 40.4533 206.542 58.24C206.542 76.0267 195.208 89.0152 177.504 89.0152ZM157.98 58.24C157.98 70.4011 163.522 81.1559 177.504 81.1559C191.485 81.1559 197.028 70.4011 197.028 58.24C197.028 46.0788 191.485 35.4068 177.504 35.4068C163.522 35.4068 157.98 46.0788 157.98 58.24Z" fill="#40D1DB"/>
<path d="M532.98 87.857V45.6652H541.088V87.857H532.98Z" fill="#40D1DB"/>
<path d="M537.078 39.1022C539.949 39.1022 542.276 36.7747 542.276 33.9035C542.276 31.0323 539.949 28.7048 537.078 28.7048C534.207 28.7048 531.879 31.0323 531.879 33.9035C531.879 36.7747 534.207 39.1022 537.078 39.1022Z" fill="#40D1DB"/>
</svg>
