<svg width="659" height="119" viewBox="0 0 659 119" fill="none" xmlns="http://www.w3.org/2000/svg">
<path d="M653.561 87.6279C646.612 87.6279 642.392 84.9806 642.392 75.2186V51.6408H636.27V44.9398H642.392V31.3723H650.5V44.9398H658.607V51.6408H650.5V75.4668C650.5 79.9341 651.741 80.9269 655.215 80.9269C656.622 80.9269 657.284 80.8441 658.69 80.596V87.1315C656.622 87.5452 655.298 87.6279 653.561 87.6279Z" fill="#40D1DB"/>
<path d="M623.193 60.0789C623.193 54.4533 620.711 50.6478 614.589 50.6478C607.64 50.6478 603.173 54.867 603.173 61.2371V87.1312H595.065V44.9395H603.173V50.2341H603.338C605.572 47.0077 609.957 43.6985 617.237 43.6985C625.013 43.6985 631.301 48.1659 631.301 57.8452V87.1312H623.193V60.0789Z" fill="#40D1DB"/>
<path d="M568.198 88.3719C554.796 88.3719 547.35 78.8581 547.35 65.9524C547.35 52.7157 555.292 43.6156 568.198 43.6156C581.021 43.6156 588.218 52.0539 588.218 65.1251C588.218 66.2833 588.218 67.5242 588.136 68.1861H555.706C555.871 75.218 560.008 81.7536 568.363 81.7536C575.809 81.7536 578.705 76.9553 579.449 74.1425H587.722C585.488 82.25 579.284 88.3719 568.198 88.3719ZM555.706 61.8159H579.78C579.78 55.1976 575.147 50.2339 567.95 50.2339C561.166 50.2339 556.202 54.8667 555.706 61.8159Z" fill="#40D1DB"/>
<path d="M501.906 88.2884C491.151 88.2884 482.961 79.9328 482.961 66.0343C482.961 52.1359 491.151 43.6975 501.906 43.6975C508.524 43.6975 512.578 46.7585 514.894 50.0676H515.06V27.979H523.167V87.1302H515.06V82.1665H514.894C512.578 85.1447 508.524 88.2884 501.906 88.2884ZM491.4 66.0343C491.4 74.3072 495.288 81.5874 503.23 81.5874C510.51 81.5874 514.977 75.5481 514.977 66.0343C514.977 56.4378 510.51 50.4813 503.23 50.4813C495.288 50.4813 491.4 57.7614 491.4 66.0343Z" fill="#40D1DB"/>
<path d="M454.724 88.2894C443.969 88.2894 435.779 79.9338 435.779 66.0354C435.779 52.1369 443.969 43.6985 454.724 43.6985C461.342 43.6985 465.396 46.7595 467.712 50.0687H467.878V44.9395H475.985V87.1312H467.878V82.1675H467.712C465.396 85.1457 461.342 88.2894 454.724 88.2894ZM444.217 66.0354C444.217 74.3083 448.105 81.5884 456.047 81.5884C463.327 81.5884 467.795 75.5492 467.795 66.0354C467.795 56.4388 463.327 50.4823 456.047 50.4823C448.105 50.4823 444.217 57.7625 444.217 66.0354Z" fill="#40D1DB"/>
<path d="M418.891 65.2903V87.1307H410.784V44.9389H418.891V52.9637H419.057C421.291 47.669 424.682 43.9462 430.391 43.9462C431.88 43.9462 433.038 44.0289 434.279 44.1944V51.9709C433.286 51.8055 432.542 51.7227 431.549 51.7227C424.186 51.7227 418.891 57.2656 418.891 65.2903Z" fill="#40D1DB"/>
<path d="M375.1 88.2894C358.058 88.2894 348.461 75.3836 348.461 57.5142C348.461 39.7275 359.298 26.8218 376.175 26.8218C391.48 26.8218 399.587 35.0119 401.49 46.2631H391.976C390.405 38.8175 384.862 34.681 376.092 34.681C363.021 34.681 357.975 46.4285 357.975 57.5142C357.975 68.6826 361.78 80.4301 375.596 80.4301C385.358 80.4301 393.135 73.6463 393.217 63.8016H375.761V56.1905H402.483V87.1311H393.962V78.941H393.796C389.66 84.9802 384.117 88.2894 375.1 88.2894Z" fill="#40D1DB"/>
<path d="M333.723 60.0789C333.723 54.4533 331.241 50.6478 325.12 50.6478C318.17 50.6478 313.703 54.867 313.703 61.2371V87.1312H305.596V44.9395H313.703V50.2341H313.868C316.102 47.0077 320.487 43.6985 327.767 43.6985C335.543 43.6985 341.831 48.1659 341.831 57.8452V87.1312H333.723V60.0789Z" fill="#40D1DB"/>
<path d="M278.728 88.3719C265.325 88.3719 257.88 78.8581 257.88 65.9524C257.88 52.7157 265.822 43.6156 278.728 43.6156C291.551 43.6156 298.748 52.0539 298.748 65.1251C298.748 66.2833 298.748 67.5242 298.665 68.1861H266.236C266.401 75.218 270.537 81.7536 278.893 81.7536C286.339 81.7536 289.234 76.9553 289.979 74.1425H298.252C296.018 82.25 289.813 88.3719 278.728 88.3719ZM266.236 61.8159H290.31C290.31 55.1976 285.677 50.2339 278.479 50.2339C271.696 50.2339 266.732 54.8667 266.236 61.8159Z" fill="#40D1DB"/>
<path d="M234.11 88.2894C227.492 88.2894 223.438 85.3112 221.121 81.9193H220.956V101.774H212.849V44.9395H220.956V49.9032H221.121C223.438 46.925 227.492 43.6985 234.11 43.6985C244.865 43.6985 253.055 52.1369 253.055 66.0354C253.055 79.9338 244.865 88.2894 234.11 88.2894ZM221.039 66.0354C221.039 75.5492 225.506 81.5884 232.786 81.5884C240.728 81.5884 244.534 74.3082 244.534 66.0354C244.534 57.7625 240.728 50.4823 232.786 50.4823C225.506 50.4823 221.039 56.4388 221.039 66.0354Z" fill="#40D1DB"/>
<path d="M176.814 88.2894C159.11 88.2894 147.776 75.3009 147.776 57.5142C147.776 39.7275 159.11 26.8218 176.814 26.8218C194.518 26.8218 205.852 39.7275 205.852 57.5142C205.852 75.3009 194.518 88.2894 176.814 88.2894ZM157.29 57.5142C157.29 69.6754 162.833 80.4301 176.814 80.4301C190.795 80.4301 196.338 69.6754 196.338 57.5142C196.338 45.3531 190.795 34.681 176.814 34.681C162.833 34.681 157.29 45.3531 157.29 57.5142Z" fill="#40D1DB"/>
<path d="M532.291 87.1312V44.9394H540.398V87.1312H532.291Z" fill="#40D1DB"/>
<path d="M536.388 38.3764C539.259 38.3764 541.587 36.0489 541.587 33.1777C541.587 30.3066 539.259 27.979 536.388 27.979C533.517 27.979 531.189 30.3066 531.189 33.1777C531.189 36.0489 533.517 38.3764 536.388 38.3764Z" fill="#40D1DB"/>
<path fill-rule="evenodd" clip-rule="evenodd" d="M49.7015 4.20683C54.9998 -1.21945 63.7266 -1.21946 69.0249 4.20683L82.4085 17.9138C84.8715 20.4363 86.2503 23.822 86.2503 27.3476V32.6132H91.5153C95.0409 32.6132 98.4266 33.992 100.949 36.455L114.656 49.8386C120.082 55.1369 120.082 63.8637 114.656 69.162L100.949 82.5456C98.4266 85.0086 95.0409 86.3874 91.5153 86.3874H86.2503V91.6525C86.2503 95.178 84.8715 98.5637 82.4085 101.086L69.0249 114.793C63.7266 120.219 54.9998 120.219 49.7015 114.793L36.3179 101.086C33.8549 98.5637 32.4761 95.178 32.4761 91.6525V86.3874H27.2104C23.6849 86.3874 20.2992 85.0086 17.7767 82.5456L4.06971 69.162C-1.35656 63.8637 -1.35658 55.1369 4.06971 49.8386L17.7767 36.455C20.2992 33.992 23.6849 32.6132 27.2104 32.6132H32.4761V27.3476C32.4761 23.822 33.8549 20.4363 36.3179 17.9138L49.7015 4.20683ZM39.7219 91.6525V86.3874H46.0261C49.5517 86.3874 52.9374 85.0086 55.4599 82.5456L59.3629 78.7347L63.2659 82.5456C65.7884 85.0086 69.1741 86.3874 72.6997 86.3874H79.0046V91.6525C79.0046 93.2862 78.3656 94.8552 77.2242 96.0242L63.8406 109.731C61.3853 112.246 57.3412 112.246 54.8859 109.731L41.5022 96.0242C40.3608 94.8552 39.7219 93.2862 39.7219 91.6525ZM50.3979 77.3613L54.1771 73.6712L50.2258 69.8131C50.0476 69.6491 49.8728 69.4794 49.7015 69.304L49.6441 69.2452L49.5589 69.162C49.3766 68.9839 49.2003 68.802 49.0302 68.6164L45.1923 64.6858L41.5022 68.465C40.3608 69.634 39.7219 71.203 39.7219 72.8368V79.1417H46.0261C47.6599 79.1417 49.2289 78.5027 50.3979 77.3613ZM64.5487 45.3294L68.4791 49.1671C68.6647 49.3373 68.8468 49.5136 69.0249 49.696L69.1083 49.7815L69.1669 49.8386C69.3422 50.0098 69.5118 50.1846 69.6758 50.3627L73.5341 54.3142L77.2242 50.535C78.3656 49.366 79.0046 47.797 79.0046 46.1632V39.859H72.6997C71.0659 39.859 69.4969 40.4979 68.3279 41.6393L64.5487 45.3294ZM69.1669 69.162L69.0951 69.232L69.0249 69.304C68.8502 69.4829 68.6718 69.6559 68.4898 69.8231L64.5487 73.6712L68.3279 77.3613C69.4969 78.5027 71.0659 79.1417 72.6997 79.1417H79.0046V72.8368C79.0046 71.203 78.3656 69.634 77.2242 68.465L73.5341 64.6858L69.6858 68.6271C69.5187 68.809 69.3457 68.9873 69.1669 69.162ZM55.4599 36.455L59.3629 40.266L63.2659 36.455C65.7884 33.992 69.1741 32.6132 72.6997 32.6132H79.0046V27.3476C79.0046 25.7138 78.3656 24.1448 77.2242 22.9758L63.8406 9.26884C61.3853 6.75423 57.3412 6.75423 54.8858 9.26885L41.5022 22.9758C40.3608 24.1448 39.7219 25.7138 39.7219 27.3476V32.6132H46.0261C49.5517 32.6132 52.9374 33.992 55.4599 36.455ZM46.0261 39.859H39.7219V46.1632C39.7219 47.797 40.3608 49.366 41.5022 50.535L45.1923 54.3142L49.0396 50.374C49.2068 50.192 49.3799 50.0134 49.5589 49.8386L49.6312 49.7681L49.7015 49.6961C49.8763 49.5171 50.0547 49.344 50.2367 49.1769L54.1771 45.3294L50.3979 41.6393C49.2289 40.4979 47.6599 39.859 46.0261 39.859ZM32.4761 46.1632V39.859H27.2104C25.5767 39.859 24.0077 40.4979 22.8387 41.6393L9.13173 55.023C6.61711 57.4783 6.61711 61.5224 9.13173 63.9777L22.8387 77.3613C24.0077 78.5027 25.5767 79.1417 27.2104 79.1417H32.4761V72.8368C32.4761 69.3113 33.8549 65.9255 36.3179 63.403L40.1288 59.5L36.3179 55.597C33.8549 53.0745 32.4761 49.6888 32.4761 46.1632ZM86.2503 79.1417H91.5153C93.1491 79.1417 94.7181 78.5027 95.8871 77.3613L109.594 63.9777C112.109 61.5224 112.109 57.4783 109.594 55.023L95.8871 41.6393C94.7181 40.4979 93.1491 39.859 91.5153 39.859H86.2503V46.1632C86.2503 49.6888 84.8715 53.0745 82.4085 55.597L78.5976 59.5L82.4085 63.403C84.8715 65.9255 86.2503 69.3113 86.2503 72.8368V79.1417ZM52.3998 59.5001C52.3998 63.3459 55.5174 66.4636 59.3633 66.4636C63.2091 66.4636 66.3267 63.3459 66.3267 59.5001C66.3267 55.6543 63.2091 52.5366 59.3633 52.5366C55.5174 52.5366 52.3998 55.6543 52.3998 59.5001Z" fill="#40D1DB"/>
</svg>
