<svg width="1000" height="147" viewBox="0 0 1000 147" fill="none" xmlns="http://www.w3.org/2000/svg">
<path d="M989.961 119.015C976.36 119.015 968.101 113.834 968.101 94.7266V48.5784H956.119V35.4626H968.101V8.90723H983.97V35.4626H999.838V48.5784H983.97V95.2123C983.97 103.956 986.399 105.899 993.2 105.899C995.952 105.899 997.248 105.737 1000 105.252V118.044C995.952 118.853 993.361 119.015 989.961 119.015Z" fill="white"/>
<path d="M930.524 65.093C930.524 54.0823 925.666 46.6338 913.684 46.6338C900.082 46.6338 891.338 54.8919 891.338 67.36V118.042H875.47V35.4611H891.338V45.8242H891.662C896.034 39.5092 904.616 33.0322 918.865 33.0322C934.086 33.0322 946.392 41.7761 946.392 60.7211V118.042H930.524V65.093Z" fill="white"/>
<path d="M822.881 120.471C796.649 120.471 782.076 101.849 782.076 76.5894C782.076 50.6817 797.621 32.8701 822.881 32.8701C847.979 32.8701 862.066 49.3863 862.066 74.9702C862.066 77.2371 862.066 79.6659 861.904 80.9613H798.43C798.754 94.7248 806.85 107.517 823.205 107.517C837.778 107.517 843.445 98.1252 844.902 92.6198H861.095C856.723 108.488 844.579 120.471 822.881 120.471ZM798.43 68.4932H845.55C845.55 55.5394 836.482 45.824 822.395 45.824C809.117 45.824 799.402 54.8917 798.43 68.4932Z" fill="white"/>
<path d="M693.126 120.307C672.076 120.307 656.046 103.952 656.046 76.7494C656.046 49.5463 672.076 33.0301 693.126 33.0301C706.08 33.0301 714.014 39.0212 718.548 45.4982H718.872V2.26465H734.741V118.04H718.872V108.324H718.548C714.014 114.154 706.08 120.307 693.126 120.307ZM672.562 76.7494C672.562 92.9417 680.172 107.191 695.717 107.191C709.966 107.191 718.71 95.3706 718.71 76.7494C718.71 57.9663 709.966 46.3078 695.717 46.3078C680.172 46.3078 672.562 60.557 672.562 76.7494Z" fill="white"/>
<path d="M600.782 120.309C579.732 120.309 563.701 103.955 563.701 76.7515C563.701 49.5484 579.732 33.0322 600.782 33.0322C613.736 33.0322 621.67 39.0234 626.204 45.5003H626.527V35.4611H642.396V118.042H626.527V108.327H626.204C621.67 114.156 613.736 120.309 600.782 120.309ZM580.217 76.7515C580.217 92.9438 587.828 107.193 603.372 107.193C617.622 107.193 626.365 95.3727 626.365 76.7515C626.365 57.9684 617.622 46.3099 603.372 46.3099C587.828 46.3099 580.217 60.5592 580.217 76.7515Z" fill="white"/>
<path d="M530.644 75.2938V118.042H514.775V35.4607H530.644V51.1672H530.968C535.34 40.8041 541.979 33.5176 553.151 33.5176C556.066 33.5176 558.333 33.6795 560.762 34.0033V49.2241C558.819 48.9003 557.361 48.7384 555.418 48.7384C541.007 48.7384 530.644 59.5872 530.644 75.2938Z" fill="white"/>
<path d="M444.933 120.309C411.577 120.309 392.794 95.049 392.794 60.0735C392.794 25.26 414.006 0 447.038 0C476.994 0 492.863 16.0304 496.587 38.052H477.966C474.889 23.4789 464.04 15.3827 446.876 15.3827C421.292 15.3827 411.415 38.3758 411.415 60.0735C411.415 81.9332 418.864 104.926 445.905 104.926C465.012 104.926 480.233 91.6486 480.394 72.3797H446.229V57.4828H498.53V118.042H481.852V102.012H481.528C473.432 113.832 462.583 120.309 444.933 120.309Z" fill="white"/>
<path d="M363.949 65.093C363.949 54.0823 359.092 46.6338 347.109 46.6338C333.508 46.6338 324.764 54.8919 324.764 67.36V118.042H308.896V35.4611H324.764V45.8242H325.088C329.46 39.5092 338.042 33.0322 352.291 33.0322C367.512 33.0322 379.818 41.7761 379.818 60.7211V118.042H363.949V65.093Z" fill="white"/>
<path d="M256.311 120.471C230.079 120.471 215.506 101.849 215.506 76.5894C215.506 50.6817 231.051 32.8701 256.311 32.8701C281.409 32.8701 295.496 49.3863 295.496 74.9702C295.496 77.2371 295.496 79.6659 295.334 80.9613H231.86C232.184 94.7248 240.28 107.517 256.634 107.517C271.207 107.517 276.875 98.1252 278.332 92.6198H294.524C290.153 108.488 278.008 120.471 256.311 120.471ZM231.86 68.4932H278.98C278.98 55.5394 269.912 45.824 255.825 45.824C242.547 45.824 232.832 54.8917 231.86 68.4932Z" fill="white"/>
<path d="M168.981 120.309C156.028 120.309 148.093 114.48 143.56 107.841H143.236V146.702H127.367V35.4611H143.236V45.1765H143.56C148.093 39.3472 156.028 33.0322 168.981 33.0322C190.032 33.0322 206.062 49.5484 206.062 76.7515C206.062 103.955 190.032 120.309 168.981 120.309ZM143.398 76.7515C143.398 95.3727 152.141 107.193 166.391 107.193C181.935 107.193 189.384 92.9438 189.384 76.7515C189.384 60.5592 181.935 46.3099 166.391 46.3099C152.141 46.3099 143.398 57.9684 143.398 76.7515Z" fill="white"/>
<path d="M56.8351 120.309C22.1835 120.309 0 94.887 0 60.0735C0 25.26 22.1835 0 56.8351 0C91.4867 0 113.67 25.26 113.67 60.0735C113.67 94.887 91.4867 120.309 56.8351 120.309ZM18.6212 60.0735C18.6212 83.8763 29.47 104.926 56.8351 104.926C84.2001 104.926 95.049 83.8763 95.049 60.0735C95.049 36.2708 84.2001 15.3827 56.8351 15.3827C29.47 15.3827 18.6212 36.2708 18.6212 60.0735Z" fill="white"/>
<path d="M752.603 118.042V35.4609H768.471V118.042H752.603Z" fill="white"/>
<path d="M760.621 22.6158C766.241 22.6158 770.796 18.06 770.796 12.4402C770.796 6.8204 766.241 2.26465 760.621 2.26465C755.001 2.26465 750.445 6.8204 750.445 12.4402C750.445 18.06 755.001 22.6158 760.621 22.6158Z" fill="white"/>
</svg>
