<svg width="1000" height="487" viewBox="0 0 1000 487" fill="none" xmlns="http://www.w3.org/2000/svg">
<g clip-path="url(#clip0_420_1070)">
<path d="M989.961 458.745C976.359 458.745 968.101 453.563 968.101 434.456V388.308H956.119V375.192H968.101V348.637H983.969V375.192H999.838V388.308H983.969V434.942C983.969 443.686 986.398 445.629 993.199 445.629C995.952 445.629 997.247 445.467 1000 444.981V457.773C995.952 458.583 993.361 458.745 989.961 458.745Z" fill="#40D1DB"/>
<path d="M930.523 404.824C930.523 393.813 925.666 386.364 913.683 386.364C900.082 386.364 891.338 394.622 891.338 407.09V457.772H875.469V375.192H891.338V385.555H891.662C896.034 379.24 904.615 372.763 918.865 372.763C934.086 372.763 946.392 381.507 946.392 400.452V457.772H930.523V404.824Z" fill="#40D1DB"/>
<path d="M822.881 460.202C796.649 460.202 782.076 441.581 782.076 416.321C782.076 390.413 797.621 372.602 822.881 372.602C847.979 372.602 862.066 389.118 862.066 414.702C862.066 416.969 862.066 419.397 861.904 420.693H798.43C798.754 434.456 806.85 447.248 823.205 447.248C837.778 447.248 843.445 437.857 844.902 432.351H861.095C856.723 448.22 844.579 460.202 822.881 460.202ZM798.43 408.225H845.55C845.55 395.271 836.482 385.555 822.395 385.555C809.117 385.555 799.402 394.623 798.43 408.225Z" fill="#40D1DB"/>
<path d="M693.13 460.037C672.08 460.037 656.049 443.683 656.049 416.48C656.049 389.277 672.08 372.761 693.13 372.761C706.084 372.761 714.018 378.752 718.552 385.229H718.876V341.995H734.744V457.77H718.876V448.055H718.552C714.018 453.884 706.084 460.037 693.13 460.037ZM672.566 416.48C672.566 432.672 680.176 446.921 695.721 446.921C709.97 446.921 718.714 435.101 718.714 416.48C718.714 397.697 709.97 386.038 695.721 386.038C680.176 386.038 672.566 400.288 672.566 416.48Z" fill="#40D1DB"/>
<path d="M600.782 460.039C579.732 460.039 563.701 443.685 563.701 416.482C563.701 389.279 579.732 372.763 600.782 372.763C613.736 372.763 621.67 378.754 626.204 385.231H626.527V375.192H642.396V457.772H626.527V448.057H626.204C621.67 453.886 613.736 460.039 600.782 460.039ZM580.217 416.482C580.217 432.674 587.828 446.924 603.372 446.924C617.622 446.924 626.366 435.103 626.366 416.482C626.366 397.699 617.622 386.04 603.372 386.04C587.828 386.04 580.217 400.29 580.217 416.482Z" fill="#40D1DB"/>
<path d="M530.647 415.025V457.773H514.779V375.192H530.647V390.899H530.971C535.343 380.536 541.982 373.249 553.155 373.249C556.069 373.249 558.336 373.411 560.765 373.735V388.956C558.822 388.632 557.365 388.47 555.422 388.47C541.01 388.47 530.647 399.319 530.647 415.025Z" fill="#40D1DB"/>
<path d="M444.934 460.04C411.578 460.04 392.794 434.779 392.794 399.804C392.794 364.991 414.006 339.73 447.039 339.73C476.995 339.73 492.863 355.761 496.587 377.782H477.966C474.89 363.209 464.041 355.113 446.877 355.113C421.293 355.113 411.416 378.106 411.416 399.804C411.416 421.664 418.864 444.657 445.905 444.657C465.012 444.657 480.233 431.379 480.395 412.11H446.229V397.213H498.53V457.773H481.852V441.742H481.528C473.432 453.563 462.583 460.04 444.934 460.04Z" fill="#40D1DB"/>
<path d="M363.95 404.824C363.95 393.813 359.093 386.364 347.11 386.364C333.509 386.364 324.765 394.622 324.765 407.09V457.772H308.896V375.192H324.765V385.555H325.089C329.461 379.24 338.043 372.763 352.292 372.763C367.513 372.763 379.819 381.507 379.819 400.452V457.772H363.95V404.824Z" fill="#40D1DB"/>
<path d="M256.308 460.202C230.077 460.202 215.503 441.581 215.503 416.321C215.503 390.413 231.048 372.602 256.308 372.602C281.406 372.602 295.494 389.118 295.494 414.702C295.494 416.969 295.494 419.397 295.332 420.693H231.858C232.182 434.456 240.278 447.248 256.632 447.248C271.205 447.248 276.872 437.857 278.33 432.351H294.522C290.15 448.22 278.006 460.202 256.308 460.202ZM231.858 408.225H278.977C278.977 395.271 269.91 385.555 255.822 385.555C242.545 385.555 232.829 394.623 231.858 408.225Z" fill="#40D1DB"/>
<path d="M168.979 460.039C156.025 460.039 148.091 454.21 143.557 447.571H143.233V486.433H127.365V375.192H143.233V384.907H143.557C148.091 379.078 156.025 372.763 168.979 372.763C190.029 372.763 206.059 389.279 206.059 416.482C206.059 443.685 190.029 460.039 168.979 460.039ZM143.395 416.482C143.395 435.103 152.139 446.924 166.388 446.924C181.933 446.924 189.381 432.674 189.381 416.482C189.381 400.29 181.933 386.04 166.388 386.04C152.139 386.04 143.395 397.699 143.395 416.482Z" fill="#40D1DB"/>
<path d="M56.8351 460.04C22.1835 460.04 0 434.618 0 399.804C0 364.991 22.1835 339.73 56.8351 339.73C91.4867 339.73 113.67 364.991 113.67 399.804C113.67 434.618 91.4867 460.04 56.8351 460.04ZM18.6212 399.804C18.6212 423.607 29.4701 444.657 56.8351 444.657C84.2002 444.657 95.049 423.607 95.049 399.804C95.049 376.001 84.2002 355.113 56.8351 355.113C29.4701 355.113 18.6212 376.001 18.6212 399.804Z" fill="#40D1DB"/>
<path d="M752.603 457.774V375.193H768.471V457.774H752.603Z" fill="#40D1DB"/>
<path d="M760.622 362.347C766.242 362.347 770.797 357.791 770.797 352.172C770.797 346.552 766.242 341.996 760.622 341.996C755.002 341.996 750.446 346.552 750.446 352.172C750.446 357.791 755.002 362.347 760.622 362.347Z" fill="#40D1DB"/>
<path fill-rule="evenodd" clip-rule="evenodd" d="M479.036 9.195C490.356 -2.39832 509.001 -2.39834 520.321 9.19499L548.915 38.4801C554.177 43.8695 557.123 51.1031 557.123 58.6354V69.8856H568.372C575.904 69.8856 583.138 72.8314 588.527 78.0936L617.812 106.688C629.406 118.008 629.406 136.653 617.812 147.973L588.527 176.567C583.138 181.829 575.904 184.775 568.372 184.775H557.123V196.024C557.123 203.556 554.177 210.79 548.915 216.179L520.321 245.464C509.001 257.057 490.356 257.057 479.036 245.464L450.442 216.179C445.18 210.79 442.234 203.556 442.234 196.024V184.775H430.984C423.451 184.775 416.218 181.829 410.828 176.567L381.543 147.973C369.95 136.653 369.95 118.008 381.543 106.688L410.828 78.0936C416.218 72.8314 423.451 69.8856 430.984 69.8856H442.234V58.6355C442.234 51.1031 445.18 43.8695 450.442 38.4801L479.036 9.195ZM457.714 196.024V184.775H471.184C478.716 184.775 485.95 181.829 491.339 176.567L499.678 168.425L508.017 176.567C513.406 181.829 520.64 184.775 528.172 184.775H541.642V196.024C541.642 199.514 540.277 202.866 537.839 205.364L509.244 234.649C503.999 240.022 495.358 240.022 490.112 234.649L461.518 205.364C459.08 202.866 457.714 199.514 457.714 196.024ZM480.524 165.49L488.598 157.607L480.156 149.364C479.776 149.013 479.402 148.651 479.036 148.276L478.913 148.15L478.731 147.973C478.342 147.592 477.965 147.203 477.602 146.807L469.402 138.409L461.518 146.483C459.08 148.981 457.714 152.333 457.714 155.824V169.294H471.184C474.674 169.294 478.026 167.929 480.524 165.49ZM510.757 97.0539L519.155 105.253C519.551 105.617 519.94 105.993 520.321 106.383L520.499 106.566L520.624 106.688C520.999 107.054 521.361 107.427 521.711 107.808L529.955 116.25L537.839 108.176C540.277 105.678 541.642 102.326 541.642 98.8354V85.3663H528.172C524.681 85.3663 521.329 86.7314 518.832 89.17L510.757 97.0539ZM520.624 147.973L520.471 148.122L520.321 148.276C519.947 148.658 519.566 149.028 519.178 149.385L510.757 157.607L518.832 165.49C521.329 167.929 524.681 169.294 528.172 169.294H541.642V155.824C541.642 152.333 540.277 148.981 537.839 146.483L529.955 138.409L521.733 146.83C521.376 147.218 521.006 147.599 520.624 147.973ZM491.339 78.0936L499.678 86.2358L508.017 78.0936C513.406 72.8314 520.64 69.8856 528.172 69.8856H541.642V58.6354C541.642 55.1449 540.277 51.7927 537.839 49.2952L509.244 20.0101C503.999 14.6375 495.358 14.6375 490.112 20.0101L461.518 49.2952C459.08 51.7927 457.714 55.1449 457.714 58.1355V69.8856H471.184C478.716 69.8856 485.95 72.8314 491.339 78.0936ZM471.184 85.3663H457.714V98.8354C457.714 102.326 459.08 105.678 461.518 108.176L469.402 116.25L477.622 107.832C477.979 107.443 478.349 107.061 478.731 106.688L478.886 106.537L479.036 106.383C479.409 106.001 479.791 105.631 480.179 105.274L488.598 97.0539L480.524 89.17C478.026 86.7314 474.674 85.3663 471.184 85.3663ZM442.234 98.8354V85.3663H430.984C427.493 85.3663 424.141 86.7314 421.643 89.17L392.358 117.764C386.986 123.01 386.986 131.65 392.358 136.896L421.643 165.49C424.141 167.929 427.493 169.294 430.984 169.294H442.234V155.824C442.234 148.291 445.18 141.058 450.442 135.668L458.584 127.33L450.442 118.991C445.18 113.601 442.234 106.368 442.234 98.8354ZM557.123 169.294H568.372C571.862 169.294 575.215 167.929 577.712 165.49L606.997 136.896C612.37 131.65 612.37 123.01 606.997 117.764L577.712 89.17C575.215 86.7314 571.862 85.3663 568.372 85.3663H557.123V98.8354C557.123 106.368 554.177 113.601 548.915 118.991L540.773 127.33L548.915 135.668C554.177 141.058 557.123 148.291 557.123 155.824V169.294ZM484.801 127.33C484.801 135.546 491.462 142.207 499.679 142.207C507.895 142.207 514.556 135.546 514.556 127.33C514.556 119.113 507.895 112.452 499.679 112.452C491.462 112.452 484.801 119.113 484.801 127.33Z" fill="#40D1DB"/>
</g>
<defs>
<clipPath id="clip0_420_1070">
<rect width="1000" height="486" fill="white" transform="translate(0 0.5)"/>
</clipPath>
</defs>
</svg>
